<svg width="71" height="22" viewBox="0 0 71 22" fill="none" xmlns="http://www.w3.org/2000/svg">
<path d="M27.792 16.064C27.5253 16.064 27.2427 16.0427 26.944 16C26.6453 15.9467 26.3573 15.8453 26.08 15.696C25.8133 15.536 25.5947 15.296 25.424 14.976C25.2533 14.656 25.168 14.224 25.168 13.68V6.672C25.168 6.20267 25.2373 5.808 25.376 5.488C25.5253 5.168 25.7173 4.91733 25.952 4.736C26.1867 4.544 26.448 4.41067 26.736 4.336C27.0347 4.25067 27.328 4.208 27.616 4.208C28.3093 4.21867 28.944 4.23467 29.52 4.256C30.1067 4.26667 30.6507 4.28267 31.152 4.304C31.6533 4.32533 32.1333 4.34667 32.592 4.368V5.696H28.048C27.6533 5.696 27.344 5.79733 27.12 6C26.896 6.20267 26.784 6.52267 26.784 6.96V9.408L31.872 9.504V10.752L26.784 10.864V13.28C26.784 13.6427 26.8427 13.9147 26.96 14.096C27.088 14.2773 27.248 14.4 27.44 14.464C27.6427 14.528 27.856 14.56 28.08 14.56H32.592V15.888C32.1013 15.92 31.584 15.952 31.04 15.984C30.496 16.0053 29.9467 16.0213 29.392 16.032C28.848 16.0533 28.3147 16.064 27.792 16.064ZM36.9415 16.016C36.4188 16.016 35.9762 15.9253 35.6135 15.744C35.2615 15.5627 34.9948 15.2747 34.8135 14.88C34.6428 14.4747 34.5575 13.9307 34.5575 13.248V3.792H36.1575V13.04C36.1575 13.488 36.2002 13.8347 36.2855 14.08C36.3815 14.3147 36.5095 14.48 36.6695 14.576C36.8402 14.672 37.0375 14.736 37.2615 14.768L38.0615 14.864V16.016H36.9415ZM42.7304 16.096C41.8237 16.096 41.0984 15.9627 40.5544 15.696C40.021 15.4293 39.637 14.9813 39.4024 14.352C39.1784 13.712 39.0664 12.832 39.0664 11.712C39.0664 10.5707 39.1784 9.68533 39.4024 9.056C39.637 8.416 40.021 7.968 40.5544 7.712C41.0877 7.456 41.8077 7.328 42.7144 7.328C43.5037 7.328 44.1384 7.41333 44.6184 7.584C45.109 7.744 45.4664 8.03733 45.6904 8.464C45.925 8.88 46.0424 9.46133 46.0424 10.208C46.0424 10.7307 45.9357 11.1467 45.7224 11.456C45.5197 11.7653 45.2264 11.9893 44.8424 12.128C44.469 12.2667 44.021 12.336 43.4984 12.336H40.6664C40.677 12.9547 40.7464 13.4507 40.8744 13.824C41.013 14.1867 41.253 14.4533 41.5944 14.624C41.9464 14.784 42.4584 14.864 43.1304 14.864H45.8024V15.824C45.3437 15.888 44.8744 15.9467 44.3944 16C43.9144 16.064 43.3597 16.096 42.7304 16.096ZM40.6504 11.328H43.3544C43.781 11.328 44.0957 11.248 44.2984 11.088C44.501 10.928 44.6024 10.6347 44.6024 10.208C44.6024 9.78133 44.5384 9.44533 44.4104 9.2C44.293 8.95467 44.0957 8.77867 43.8184 8.672C43.541 8.56533 43.173 8.512 42.7144 8.512C42.1917 8.512 41.7757 8.592 41.4664 8.752C41.1677 8.912 40.9544 9.19467 40.8264 9.6C40.709 10.0053 40.6504 10.5813 40.6504 11.328ZM51.179 16.096C50.6777 16.096 50.2137 16.032 49.787 15.904C49.371 15.7653 49.003 15.536 48.683 15.216C48.3737 14.896 48.1337 14.4533 47.963 13.888C47.7923 13.3227 47.707 12.608 47.707 11.744C47.707 10.8587 47.787 10.1333 47.947 9.568C48.107 8.992 48.3363 8.544 48.635 8.224C48.9443 7.89333 49.3177 7.664 49.755 7.536C50.1923 7.408 50.683 7.344 51.227 7.344C51.675 7.344 52.1443 7.36533 52.635 7.408C53.1363 7.45067 53.6217 7.52 54.091 7.616V8.56H51.675C51.1523 8.56 50.715 8.64533 50.363 8.816C50.011 8.976 49.7497 9.29067 49.579 9.76C49.4083 10.2187 49.323 10.8853 49.323 11.76C49.323 12.6027 49.4137 13.2533 49.595 13.712C49.7763 14.16 50.0377 14.464 50.379 14.624C50.731 14.784 51.1683 14.864 51.691 14.864H54.219V15.776C53.9737 15.84 53.6803 15.8987 53.339 15.952C53.0083 15.9947 52.6563 16.0267 52.283 16.048C51.9203 16.08 51.5523 16.096 51.179 16.096ZM57.5508 16.096C56.9214 16.096 56.3988 15.9093 55.9828 15.536C55.5774 15.152 55.3748 14.624 55.3748 13.952V13.28C55.3748 12.6187 55.5988 12.08 56.0468 11.664C56.5054 11.2373 57.1934 11.024 58.1108 11.024H60.7828V10.128C60.7828 9.79733 60.7241 9.52 60.6068 9.296C60.5001 9.06133 60.2974 8.88533 59.9988 8.768C59.7001 8.65067 59.2574 8.592 58.6708 8.592H56.0468V7.648C56.4308 7.56267 56.8788 7.488 57.3908 7.424C57.9134 7.36 58.5214 7.32267 59.2148 7.312C59.9188 7.312 60.5054 7.40267 60.9748 7.584C61.4548 7.75467 61.8121 8.04267 62.0468 8.448C62.2814 8.84267 62.3988 9.37067 62.3988 10.032V16H61.1348L60.8628 15.056C60.7988 15.0987 60.6654 15.1787 60.4628 15.296C60.2601 15.4027 59.9988 15.52 59.6788 15.648C59.3694 15.776 59.0281 15.8827 58.6548 15.968C58.2921 16.0533 57.9241 16.096 57.5508 16.096ZM58.2868 14.928C58.4468 14.9387 58.6334 14.9227 58.8468 14.88C59.0708 14.8373 59.2894 14.7893 59.5028 14.736C59.7268 14.672 59.9294 14.608 60.1108 14.544C60.3028 14.48 60.4574 14.4267 60.5748 14.384C60.7028 14.3307 60.7721 14.2987 60.7828 14.288V11.824L58.5428 11.92C57.9881 11.952 57.5881 12.0907 57.3428 12.336C57.1081 12.5813 56.9908 12.9013 56.9908 13.296V13.68C56.9908 13.9893 57.0548 14.24 57.1828 14.432C57.3108 14.6133 57.4708 14.7413 57.6628 14.816C57.8654 14.8907 58.0734 14.928 58.2868 14.928ZM64.5731 16V7.44H65.8051L66.1731 8.88C66.5358 8.44267 66.9411 8.07467 67.3891 7.776C67.8371 7.47733 68.3598 7.328 68.9571 7.328C69.0958 7.328 69.2291 7.33867 69.3571 7.36C69.4851 7.37067 69.6078 7.392 69.7251 7.424V9.072C69.5758 9.05067 69.4211 9.03467 69.2611 9.024C69.1011 9.00267 68.9358 8.992 68.7651 8.992C68.4025 8.992 68.0771 9.03467 67.7891 9.12C67.5011 9.20533 67.2238 9.33867 66.9571 9.52C66.7011 9.69067 66.4398 9.904 66.1731 10.16V16H64.5731Z" fill="white"/>
<path d="M18.1667 11.6675C17.8215 13.353 16.9636 14.8906 15.7104 16.0695C14.4572 17.2484 12.8701 18.0109 11.1667 18.2525V16.565C12.4248 16.3406 13.5921 15.7598 14.5299 14.8914C15.4676 14.0231 16.1364 12.9039 16.4567 11.6667L18.1667 11.6675ZM3.54334 11.6675C3.86018 12.8904 4.51756 13.9983 5.43908 14.8625C6.3606 15.7266 7.50843 16.3115 8.74917 16.5492V18.2408C7.06243 17.9838 5.49507 17.2158 4.25844 16.0402C3.02181 14.8647 2.1754 13.3382 1.83334 11.6667H3.54334V11.6675ZM15 9.16666V10.8333H14.1667C13.3115 10.8333 12.489 11.162 11.8693 11.7514C11.2497 12.3408 10.8803 13.1459 10.8375 14L10.8333 14.1667V15H9.16667V14.1667C9.16667 13.3115 8.83798 12.489 8.24857 11.8693C7.65916 11.2497 6.85414 10.8803 6 10.8375L5.83334 10.8333H5V9.16666H15ZM10 1.66666C14.3208 1.66666 17.8742 4.95582 18.2917 9.16666H16.615C16.4116 7.55574 15.6274 6.07438 14.4095 5.00055C13.1916 3.92672 11.6237 3.33422 10 3.33422C8.3763 3.33422 6.80839 3.92672 5.59048 5.00055C4.37257 6.07438 3.58836 7.55574 3.385 9.16666H1.7075C2.12584 4.95582 5.67917 1.66666 10 1.66666Z" fill="white"/>
</svg>
